<?xml version="1.0" standalone="no"?>
<!DOCTYPE svg PUBLIC "-//W3C//DTD SVG 20010904//EN"
 "http://www.w3.org/TR/2001/REC-SVG-20010904/DTD/svg10.dtd">
<svg version="1.0" xmlns="http://www.w3.org/2000/svg"
 width="700.000000pt" height="700.000000pt" viewBox="0 0 700.000000 700.000000"
 preserveAspectRatio="xMidYMid meet">
<metadata>
Created by potrace 1.11, written by Peter Selinger 2001-2013
</metadata>
<g transform="translate(0.000000,700.000000) scale(0.100000,-0.100000)"
fill="#000000" stroke="none">
<path d="M4097 6814 c-1 -1 -69 -4 -152 -8 -82 -4 -166 -8 -185 -10 -19 -3
-73 -7 -119 -11 -46 -4 -91 -8 -100 -10 -9 -1 -50 -6 -91 -10 -41 -3 -86 -8
-100 -10 -14 -2 -54 -6 -90 -10 -83 -8 -145 -15 -194 -20 -21 -3 -66 -8 -100
-11 -33 -3 -72 -7 -86 -9 -14 -1 -59 -6 -100 -9 -41 -4 -86 -9 -100 -11 -58
-9 -109 -14 -180 -20 -41 -4 -86 -8 -100 -10 -24 -4 -66 -9 -182 -20 -65 -6
-132 -14 -178 -20 -19 -2 -62 -7 -95 -10 -33 -3 -80 -8 -105 -10 -25 -3 -67
-7 -95 -10 -27 -2 -66 -7 -85 -9 -36 -6 -122 -15 -200 -21 -25 -3 -67 -7 -95
-10 -27 -4 -66 -8 -85 -10 -19 -2 -55 -6 -80 -9 -25 -3 -92 -10 -150 -16 -58
-6 -145 -15 -195 -20 -107 -13 -147 -17 -240 -26 -38 -3 -77 -8 -85 -9 -8 -2
-22 -4 -31 -4 -14 -1 -17 -15 -19 -88 -1 -49 -3 -140 -5 -203 -2 -63 -6 -221
-10 -350 -3 -129 -8 -297 -10 -372 l-4 -136 27 4 c15 3 68 14 117 25 50 11
106 22 125 25 19 3 42 7 50 9 8 2 31 7 50 10 19 3 43 8 53 11 20 6 20 41 2
-491 -3 -77 -7 -216 -10 -310 -2 -93 -7 -240 -10 -325 -3 -85 -8 -225 -10
-310 -3 -85 -7 -225 -10 -310 -3 -85 -7 -227 -10 -315 -3 -88 -7 -225 -10
-305 -3 -80 -7 -228 -10 -330 -4 -102 -8 -239 -10 -305 -2 -66 -7 -214 -10
-330 -3 -115 -8 -255 -10 -310 -2 -55 -7 -199 -10 -320 -7 -204 -10 -291 -14
-306 0 -3 -120 -89 -265 -190 -258 -179 -264 -185 -260 -214 3 -16 7 -37 9
-45 5 -16 27 -117 69 -320 28 -132 41 -174 54 -167 4 3 34 8 67 11 33 4 98 11
145 17 134 15 171 19 235 25 33 3 71 7 85 9 14 2 54 6 90 10 36 3 81 8 100 10
19 2 59 7 88 10 28 3 76 7 105 10 28 3 68 8 87 10 19 2 64 7 100 10 36 3 99
10 140 15 41 5 104 12 140 15 36 3 81 8 100 10 19 2 59 7 88 10 28 3 76 7 105
10 28 3 68 8 87 10 19 2 64 7 100 10 36 4 76 8 90 10 14 3 57 7 95 10 39 3 81
8 95 10 28 4 99 12 180 20 30 3 71 8 90 10 19 2 66 7 105 10 38 4 71 7 72 8 2
3 19 133 38 302 4 33 9 69 11 80 2 10 6 49 10 85 3 36 9 85 14 109 11 60 7 74
-21 82 -13 4 -112 32 -219 64 -107 31 -259 76 -338 98 l-143 41 6 260 c3 144
8 358 10 476 21 1096 25 1243 30 1248 3 3 29 6 58 7 104 4 343 17 372 20 49 5
147 16 185 20 185 20 492 26 605 11 257 -32 426 -120 569 -296 66 -81 236
-391 236 -430 0 -6 4 -18 9 -28 34 -60 78 -272 96 -452 3 -30 8 -77 11 -105 5
-53 5 -565 0 -650 -2 -27 -6 -106 -10 -175 -4 -69 -9 -136 -11 -150 -2 -14 -7
-68 -10 -120 -4 -52 -9 -113 -11 -135 -2 -22 -6 -78 -10 -125 -3 -47 -7 -89
-8 -95 -1 -13 79 -10 234 10 19 3 64 7 100 10 36 3 81 8 100 10 19 2 69 7 110
10 41 3 86 8 100 10 14 3 54 7 90 10 36 3 81 8 100 10 19 2 73 7 120 11 47 3
92 8 100 9 9 2 47 6 85 9 39 4 86 9 105 11 19 2 67 7 105 10 39 3 84 8 100 10
17 2 62 7 100 10 39 3 84 8 100 10 17 2 62 7 100 10 66 6 99 9 198 19 23 3 74
8 112 12 39 3 81 8 95 9 14 2 60 6 104 10 43 4 85 9 95 10 9 2 26 4 38 4 l23
1 2 480 3 481 -25 -6 c-14 -4 -32 -8 -40 -10 -22 -5 -543 -135 -561 -140 -13
-5 -15 22 -15 222 0 203 -5 309 -19 423 -2 19 -7 62 -10 95 -15 147 -53 334
-102 500 -15 50 -120 239 -181 324 -213 299 -510 482 -915 563 -125 25 -127
26 -119 89 3 22 24 39 117 94 391 233 675 546 802 885 26 68 50 147 58 190 2
14 9 50 15 80 50 261 20 629 -72 889 -142 404 -423 645 -873 751 -44 11 -98
22 -120 25 -22 4 -47 8 -55 10 -27 7 -191 26 -279 31 -84 6 -350 12 -354 8z
m-522 -958 c98 -8 146 -18 210 -43 219 -86 323 -272 330 -593 4 -181 -17 -302
-74 -423 -72 -149 -186 -258 -353 -337 -81 -38 -227 -82 -313 -95 -22 -3 -51
-7 -65 -9 -14 -3 -52 -7 -85 -11 -33 -3 -71 -8 -85 -10 -14 -2 -56 -6 -95 -10
-38 -3 -86 -8 -105 -10 -31 -3 -70 -8 -190 -21 -19 -2 -60 -6 -90 -9 -30 -3
-93 -10 -140 -15 -47 -6 -91 -10 -97 -10 -10 0 -11 36 -8 153 2 83 7 253 10
377 4 124 8 275 10 335 2 61 7 227 10 370 4 143 9 262 11 265 3 2 15 5 27 6
39 3 141 13 177 18 34 5 78 9 205 21 33 4 78 9 100 11 22 3 54 7 70 8 84 8
182 19 200 22 11 2 72 7 135 10 63 4 117 8 118 10 2 1 9 1 15 -1 7 -2 39 -6
72 -9z"/>
</g>
</svg>
