<svg version="1.2" xmlns="http://www.w3.org/2000/svg" xmlns:xlink="http://www.w3.org/1999/xlink" x="0px"
	 y="0px" viewBox="0 0 264 60">
<g id="Logo">
	<linearGradient id="SVGID_1_" gradientUnits="userSpaceOnUse" x1="243.663223" y1="84.869553" x2="231.527756" y2="18.944427">
		<stop  offset="0" style="stop-color:#FFCF87"/>
		<stop  offset="0.028856" style="stop-color:#FACB8A"/>
		<stop  offset="0.496589" style="stop-color:#B18BBF"/>
		<stop  offset="0.831951" style="stop-color:#8462E0"/>
		<stop  offset="1" style="stop-color:#7253ED"/>
	</linearGradient>
	<path fill="url(#SVGID_1_)" d="M249.500809,3.09556h-33.409973c-5.620056,0-10.190002,4.580017-10.190002,10.200012v14.068115
		l6.19342-0.786133l1.313354,25.950499l-4.914429,0.914734c1.86261,2.112122,4.565857,3.462769,7.597656,3.462769h33.409973
		c5.619995,0,10.200027-4.579956,10.200027-10.199951V13.295572C259.700836,7.675577,255.120804,3.09556,249.500809,3.09556z"/>
	<linearGradient id="SVGID_2_" gradientUnits="userSpaceOnUse" x1="235.986237" y1="22.262489" x2="251.977219" y2="67.775314">
		<stop  offset="0" style="stop-color:#FFFFFF"/>
		<stop  offset="0.404551" style="stop-color:#F0F1F9"/>
		<stop  offset="1" style="stop-color:#DFE0F2"/>
	</linearGradient>
	<path fill="url(#SVGID_2_)" d="M249.500809,3.09556h-20.330017c-0.299988,0.350037-0.589966,0.700012-0.869995,1.059998
		l-0.039978,0.030029c-2.530029,3.190002-4.890015,6.52002-7.070007,9.969971c-0.5,0.780029-0.940002,1.480042-1.299988,2.080017
		c-1.580017,2.600037-3.090027,5.23999-4.530029,7.919983c-0.630005,1.170044-1.200012,2.25-1.580017,3.050049
		c-0.456726,0.909058-0.965271,1.94342-1.500671,3.043945l0.16217,3.204466c0.827576-1.945066,1.442688-3.34033,1.708557-3.858458
		c1.519958-2.940002,9.059998-19.899963,16.690002-23.23999l0.209961-0.079956
		c5.48999-2.120056,8.460022,7.869996,8.460022,7.869996s2.169983,5.070007,4.73999,16.759949
		c1.26001,5.72003,2.789978,12.499998,4.859985,25.999998h0.390015c5.619995,0,10.200027-4.579956,10.200027-10.199951V13.295572
		C259.700836,7.675577,255.120804,3.09556,249.500809,3.09556z"/>
	<linearGradient id="SVGID_3_" gradientUnits="userSpaceOnUse" x1="212.472" y1="50.237274" x2="231.901886" y2="12.025173">
		<stop  offset="0" style="stop-color:#FFCF87"/>
		<stop  offset="0.612417" style="stop-color:#FFC164"/>
		<stop  offset="1" style="stop-color:#FFBA52"/>
	</linearGradient>
	<path fill="url(#SVGID_3_)" d="M232.560806,5.975564c-0.47998,0-0.97998,0.100037-1.51001,0.300049l-0.209961,0.079956
		c-7.630005,3.340027-15.170044,20.299988-16.690002,23.23999c-0.265869,0.518127-0.880981,1.913391-1.708557,3.858458
		l0.965332,19.074036l-4.915344,0.914917c1.862976,2.111938,4.56665,3.462585,7.598572,3.462585h1.869995
		c0.109985-0.619995,0.219971-1.279968,0.349976-1.969971c1.030029-5.580017,2.409973-11.090027,4.140015-16.48999
		c1.399963-4.330017,2.73999-8.359983,5.339966-13.280027c2.170044-4.099976,3.820007-6.299988,6.380005-8.559998
		c1.540039-1.359985,3.73999-3.099976,4.950012-3.579956C238.270828,10.795572,236.030777,5.975564,232.560806,5.975564z"/>
	<path fill="#7253ED" d="M249.500809,1.905557h-33.409973c-6.280029,0-11.390015,5.110046-11.390015,11.390015V27.51597
		l1.200012-0.152283V13.295572c0-5.619996,4.569946-10.200012,10.190002-10.200012h33.409973
		c5.619995,0,10.200027,4.580017,10.200027,10.200012v33.410034c0,5.619995-4.580032,10.199951-10.200027,10.199951h-33.409973
		c-3.031921,0-5.735596-1.350647-7.598572-3.462585l-1.371582,0.25531c2.085266,2.671814,5.325256,4.397278,8.970154,4.397278
		h33.409973c6.289978,0,11.40004-5.109985,11.40004-11.389954V13.295572
		C260.900848,7.015604,255.790787,1.905557,249.500809,1.905557z"/>
</g>
<g id="Text">
	<path fill="#7253ED" d="M162.096939,35.050209l8.946289-0.987305l0.015884,4.131027l-1.821136,0.726158l-4.33342,18.356682
		l-9.379883,1.035156l-2.433594-8.038086l-2.337891,8.564453l-9.224121,1.018555l-4.836365-16.932823l-2.79921-0.212597
		l-1.06073-4.268867l13.363785-1.636494l0.016479,4.284374l-2.457336,0.746971l3.575623,9.330959l0.158203-0.017578
		l2.720901-10.01614l-2.090363-0.336483l-0.015305-4.203041l12.085938-1.333984l0.015289,3.977829l-2.891235,1.393711
		l4.011688,8.990765l0.158203-0.016602l3.070267-10.143452l-2.442581-0.413441L162.096939,35.050209z"/>
	<path fill="#7253ED" d="M179.859055,48.69371l0.160248,3.882526c-1.524414,0.532227-2.007813,0.576691-3.177734,0.705597
		c-1.205078,0.132813-2.100586-0.017578-2.68457-0.454102c-0.585938-0.436523-0.932617-1.148438-1.041992-2.137695
		c-0.05957-0.540039-0.101563-2.810547-0.124023-6.8125l-1.079102,0.118164l-0.015625-4.09375
		c3.668945-0.405273,6.271484-0.829102,7.806641-1.272461L179.859055,48.69371z M172.77565,37.519936l-0.014648-4.09375
		l6.926376-0.864925l-0.085236,4.091114L172.77565,37.519936z"/>
	<path fill="#7253ED" d="M191.876648,40.977379l-0.055664-2.977539c0.339844-0.219727,0.879883-0.444336,1.619141-0.670898
		c0.739258-0.228516,1.477539-0.381836,2.214844-0.462891c2.71582-0.299805,4.180664,0.511719,4.392578,2.436523
		c0.089844,0.80957-0.170898,1.542969-0.780273,2.202148c-0.610352,0.65918-1.546875,1.204102-2.80957,1.633789
		c1.197266,1.453125,1.982422,2.34082,2.355469,2.663086c0.37207,0.323242,0.855469,0.451172,1.449219,0.385742l0.039063,3.819336
		c-1.525391,0.53125-2.873047,0.862305-4.041016,0.991211c-1.205078,0.132813-2.201172-0.147461-2.988281-0.842773
		c-0.786133-0.695313-1.975586-2.319336-3.567383-4.870117l0.033203,6.160156l-6.727539,0.742188l-0.048447-9.79504
		l1.193314-6.165123l-2.312836,0.230316v-4.057087c3.208984-0.354492,5.908188-1.134521,7.893539-1.718506l-0.038071,13.190987
		c1.073242-0.299805,1.892578-0.600586,2.458008-0.901367c0.56543-0.298828,0.901367-0.541992,1.007813-0.726563
		c0.107422-0.185547,0.147461-0.394531,0.12207-0.628906c-0.024414-0.216797-0.162109-0.388672-0.412109-0.515625
		C192.622742,40.972496,192.29071,40.932457,191.876648,40.977379z"/>
	<path fill="#7253ED" d="M103.949203,35.068764l-0.192871,4.625977c-1.54541,0.905273-3.30957,1.476563-5.292969,1.712891
		c-2.373047,0.283203-4.152832-0.037109-5.34082-0.960938c-1.187012-0.922852-1.843262-2.297852-1.967773-4.125
		c-0.047852-0.698242-0.032227-1.390625,0.046387-2.077148c0.077637-0.685547,0.277344-1.426758,0.598145-2.223633
		c0.319824-0.795897,0.758301-1.501951,1.314453-2.119139c0.555664-0.617188,1.334961-1.169922,2.337402-1.660156
		c1.001953-0.488281,2.16748-0.8125,3.495117-0.970703c2.001465-0.238281,3.027786-0.293385,4.510208,0.251537l-0.140137,4.619143
		c-0.895996-0.308596-0.894485-0.297438-1.426712-0.388258c-0.533691-0.088867-1.144531-0.09375-1.835449-0.011719
		c-0.637207,0.076172-1.139648,0.303709-1.506836,0.680662c-0.367188,0.378906-0.594727,0.765625-0.683594,1.164063
		c-0.088875,0.398438-0.117188,0.831055-0.085449,1.295898c0.090332,1.326172,0.798828,1.908203,2.126953,1.750977
		c0.690918-0.083008,1.305664-0.232422,1.84375-0.449219C102.287582,35.966225,103.021469,35.595131,103.949203,35.068764z"/>
	<path fill="#7253ED" d="M146.073318,28.132603l-0.192871,4.625977c-1.54541,0.905273-3.30957,1.476563-5.292969,1.712891
		c-2.373047,0.283203-4.152832-0.037109-5.34082-0.960938c-1.187012-0.922852-1.843262-2.297852-1.967773-4.125
		c-0.047852-0.698242-0.032227-1.390625,0.046387-2.077148c0.077637-0.685547,0.277344-1.426758,0.598145-2.223633
		c0.319824-0.795898,0.758301-1.501953,1.314453-2.119141c0.555664-0.617188,1.334961-1.169922,2.337402-1.660156
		c1.001953-0.488281,2.16748-0.8125,3.495117-0.970703c2.001465-0.238281,3.635956,0.028605,5.118378,0.573526l-0.649628,4.258522
		c-0.629044-0.19561-0.993164-0.258806-1.525391-0.349627c-0.533691-0.088867-1.144531-0.09375-1.835449-0.011719
		c-0.637207,0.076172-1.139648,0.303711-1.506836,0.680664c-0.367188,0.378906-0.594727,0.765625-0.683594,1.164063
		s-0.117188,0.831055-0.085449,1.295898c0.090332,1.326172,0.798828,1.908203,2.126953,1.750977
		c0.690918-0.083008,1.305664-0.232422,1.84375-0.449219C144.411697,29.030064,145.145584,28.65897,146.073318,28.132603z"/>
	<path fill="#7253ED" d="M106.485092,23.86031c2.579475-1.434315,4.57769-2.455969,6.325722-3.448093
		c0,0-0.425201,5.645668-0.410851,7.984251l1.073112-0.094488c0.963379-2.100586,1.933289-3.207108,4.07782-3.46199
		c1.115723-0.132813,2.013672,0.071289,2.692871,0.612305c0.679688,0.541992,1.053223,1.314453,1.121582,2.317383
		c0.03418,0.500977-0.035591,1.513021-0.060547,3.039063c-0.084541,5.170406,0.836716,7.508987,0.836716,7.508987
		c-1.771049,0.3386-2.622002,0.497826-4.011032,0.532028c-0.937782,0.02309-1.445656-0.189507-1.91555-0.733997
		c-0.460205-0.533268-0.867188-1.138672-0.93457-2.124023c-0.035156-0.517578-0.025879-1.556641,0.028809-3.116211
		c0.053711-1.558596,0.074219-2.446291,0.05957-2.660158c-0.033203-0.484375-0.232361-0.66761-0.605957-0.65918
		c-1.732628,0.039101-1.926735,1.354116-1.998512,3.172476l-0.214729,6.311272l-6.494637,0.95496L106.485092,23.86031z"/>
	<path fill="#7253ED" d="M164.27327,28.467747l-0.088409,2.918594c-1.531525,0.801464-2.712631,0.99044-3.98822,1.108551
		c-1.2966,0.120056-2.170959-0.064606-2.609436-0.471832c-0.438477-0.408203-0.591354-1.066553-0.538208-2.235844
		l-0.493042,0.069828c-0.769531,2.078125-2.083008,3.226563-3.942383,3.448242
		c-1.133789,0.135742-2.123047-0.170898-2.967773-0.918945c-0.845703-0.748047-1.329102-2.006836-1.449219-3.780273
		c-0.045898-0.662109-0.042969-1.34375,0.007813-2.044922s0.188477-1.489258,0.414063-2.365234
		c0.226563-0.875,0.539063-1.65625,0.938477-2.344727c0.399414-0.6875,0.973633-1.293945,1.723633-1.816406
		s1.621094-0.842773,2.612305-0.960938c1.859375-0.22168,3.143555,0.292969,3.854492,1.544922l0.639236-0.008713l1.767014-2.010818
		l3.078461-0.475376c-0.042099,0.647322-0.54921,4.815918-0.885834,7.605158
		c-0.127335,1.055225-0.130646,2.566908,0.193436,2.886723C163.04657,29.115967,163.875687,28.579182,164.27327,28.467747z
		 M155.399261,22.353777c-0.568741,0.047396-0.994904,0.450809-1.278488,1.206934
		c-0.285156,0.757227-0.432434,1.453833-0.44339,2.085405c-0.010971,0.631575,0.012527,1.231184,0.067368,1.796623
		c0.112808,1.172766,0.55307,1.726082,1.320786,1.662153c0.794357-0.067236,1.292587-0.68889,1.494705-1.867167
		c0.200546-1.177174,0.247559-2.321281,0.13945-3.433424C156.599411,22.772621,156.166977,22.289848,155.399261,22.353777z"/>
	<path fill="#7253ED" d="M78.104118,12.363003l0.038086-2.978516c0.862305-0.564453,1.722153-0.681548,2.459946-0.759673
		c0.881836-0.09375,1.591232,0.312131,2.136154,0.772092c0.543945,0.459961,0.844238,1.052734,0.901367,1.773438
		c0.072266,0.919922-0.12207,1.795898-0.583008,2.626953c-0.460938,0.832031-1.763573,1.772399-3.216324,2.303896
		c1.272461,1.412109,2.811539,2.350401,3.818863,2.243956l-0.080078,3.828125c-0.690918,0.4375-1.549324,0.709961-2.575195,0.819336
		c-0.828125,0.087891-1.616211,0.03418-2.366699-0.15918c-0.75-0.192383-1.451172-0.513672-2.103516-0.962891
		c-0.651855-0.448242-1.213379-0.898438-1.68457-1.347656c-0.470703-0.451172-1.588509-1.982069-2.148567-2.650038
		c-0.547966,0.249491-1.592087,1.1952-1.547249,1.972441c0.035439,0.614174,0.634117,1.67952,2.417519,0.896477l-0.037598,2.977539
		c-0.863281,0.56543-2.005508,0.74501-2.838188,0.733257c-0.886726-0.012518-1.51403-0.313478-2.047615-0.860399
		c-0.497711-0.510153-0.719688-1.10248-0.776329-1.82416c-0.072266-0.919922,0.129883-1.800781,0.608398-2.643555
		c0.478516-0.841797,1.917908-2.066561,3.417908-2.314592c-1.086609-2.031495-2.9599-2.358259-3.967712-2.251814l0.080078-3.828125
		c0.691406-0.4375,1.550293-0.709961,2.575684-0.818359c0.827148-0.087891,1.616211-0.040039,2.365723,0.143555
		s1.450195,0.5,2.102051,0.950195c0.651855,0.448242,1.214355,0.897461,1.685059,1.348633
		c0.470215,0.450195,1.566589,1.909994,2.127625,2.577963c1.151573-0.372046,2.208664-1.15748,1.736221-2.527558
		C80.314941,11.571439,78.916168,11.723924,78.104118,12.363003z"/>
	<path fill="#7253ED" d="M98.688896,15.942527l-0.112793,4.104493c-1.88623,0.928711-3.855469,1.501953-5.906738,1.719727
		c-2.411621,0.255859-4.225098-0.086914-5.442383-1.032227c-1.217285-0.943359-1.898438-2.335938-2.043457-4.175781
		c-0.055176-0.703126-0.046387-1.399415,0.026367-2.089845c0.072754-0.689453,0.268066-1.432617,0.585938-2.231445
		c0.318359-0.796875,0.757324-1.50293,1.316895-2.118164c0.560059-0.614258,1.34668-1.160156,2.361328-1.641602
		c1.01416-0.481445,2.196777-0.792968,3.546387-0.936523c1.871094-0.198242,3.37793,0.045898,4.521484,0.734375
		c1.14209,0.6875,1.766113,1.699219,1.871094,3.03418c0.068359,0.866211-0.084473,1.578125-0.45752,2.135742
		c-0.374023,0.557617-1.134277,1.042969-2.280762,1.457031c-1.147461,0.412109-2.746094,0.727539-4.797852,0.945313
		c0.04248,0.541017,0.227539,0.931642,0.555176,1.168946c0.32666,0.238281,0.958496,0.307617,1.894043,0.208984
		C95.74749,17.074364,97.201591,16.647606,98.688896,15.942527z M95.375214,12.020584
		c-0.031151-0.411451-0.191765-0.751963-0.482826-1.023561c-0.29203-0.269571-0.689194-0.374968-1.191483-0.320243
		c-1.506874,0.166202-2.344032,1.297186-2.511459,3.392952c1.649971-0.182417,2.772339-0.411451,3.366135-0.685077
		C95.150345,13.113058,95.423882,12.657016,95.375214,12.020584z"/>
	<path fill="#7253ED" d="M110.921516,18.655472l0.085876-4.10797c1.92041,0.888672,3.96299,0.843345,5.978615,0.629478
		c0.899414-0.095703,1.572403-0.523985,1.617622-0.829238c0.035431-0.239173,0.092026-0.703242-0.749512-0.76525
		c-0.240982-0.017756-0.796364-0.086699-1.559059-0.097441c-3.686035-0.027344-5.1073-0.913716-5.297241-3.330709
		c-0.109375-1.389648,0.029655-2.3768,1.327995-3.407073c1.297852-1.029297,3.17041-1.672852,5.618164-1.933594
		c2.536621-0.269531,4.760254-0.142578,6.67041,0.382813l-0.085854,4.108102c-1.92041-0.888672-3.927483-0.964509-5.942131-0.750642
		c-0.900406,0.095584-1.473488,0.491186-1.493469,0.798147c-0.013657,0.209681,0.097908,0.480163,0.32412,0.565991
		c0.266151,0.100985,1.038544,0.148719,1.801239,0.156531c3.685059,0.02832,5.586037,0.994917,5.777443,3.430464
		c0.10791,1.371094-0.487793,2.571289-1.785645,3.599609c-1.297852,1.029297-3.170898,1.674805-5.617676,1.93457
		C115.055305,19.308792,112.831673,19.180862,110.921516,18.655472z"/>
	<path fill="#7253ED" d="M46.434772,22.384195c-0.159668-0.074219-0.262207-0.163086-0.307129-0.267578
		c-0.043945-0.104492-0.072754-0.237305-0.085449-0.400391c-0.01416-0.179688-0.002441-0.895508,0.035645-2.145508
		c0.037109-1.25,0.083496-2.619141,0.13916-4.107422c0.055176-1.488281,0.083984-2.450195,0.085938-2.887695
		c-1.400024,0.392883-3.287968,0.724504-6.380314,1.078325l-0.174805,4.183485l-0.159447,2.427166
		c-0.056152,1.825195-1.441692,2.799673-2.251751,2.885611c-0.395508,0.041992-0.615723-0.217773-0.659668-0.777344
		c-0.01709-0.21582-0.015137-0.601563,0.004395-1.15918c0.019043-0.556641,0.056152-1.587891,0.110352-3.094727
		c0.053711-1.506836,0.183483-3.098455,0.258564-4.624271c-1.562012,0.438477-4.244934,0.852419-7.915833,1.242067
		l-0.112305,4.104492l1.07959-0.114258c-0.109375,3.922852-0.148926,6.063477-0.120605,6.424805
		c0.083984,1.063477,0.486816,1.857422,1.208008,2.381836c0.721191,0.523438,1.62207,0.727539,2.70166,0.613281
		c2.141113-0.227539,4.382862-1.393555,5.359913-3.499023l0.27002-0.02832c0.07959,1.010742,0.376465,1.733398,0.89209,2.168945
		c0.514648,0.4375,1.366211,0.592773,2.553711,0.46582c1.169922-0.124023,2.523438-0.449219,4.060547-0.976563l0.07959-3.828125
		C46.81905,22.479898,46.59444,22.458414,46.434772,22.384195z"/>
	<path fill="#7253ED" d="M181.205811,25.199488c-0.125977-0.137695-0.179688-0.47168-0.161133-0.996094l1.059708-15.342514
		c-1.865143,0.335388-3.104599,0.63795-5.773895,0.850555l-0.354324,7.795269l-0.590546,0.617151
		c-0.492523-0.853373-2.045364-1.376217-3.355911-1.220943c-0.992188,0.118164-1.862305,0.438477-2.612305,0.960938
		c-0.75,0.523438-1.325195,1.128906-1.723633,1.816406c-0.399414,0.688477-0.711914,1.469727-0.938477,2.345703
		c-0.225586,0.875-0.364258,1.664063-0.414063,2.365234c-0.050781,0.700195-0.053711,1.381836-0.008789,2.043945
		c0.121094,1.773438,0.603516,3.032227,1.450195,3.780273c0.844727,0.748047,1.833984,1.054688,2.967773,0.919922
		c1.859375-0.22168,3.172852-1.371094,3.942383-3.449219l0.265625-0.03125c0.071289,1.057617,0.326172,1.789063,0.764648,2.197266
		c0.439453,0.408203,1.304688,0.535156,2.597656,0.380859c1.150391-0.136719,2.484375-0.475586,4-1.017578l0.116211-3.803711
		C181.993576,25.464436,181.331787,25.33816,181.205811,25.199488z M174.681656,25.036676
		c-0.218018,1.258564-0.755463,1.924376-1.612335,1.995081c-0.828125,0.06835-1.30304-0.523222-1.426407-1.777071
		c-0.059158-0.604534-0.082809-1.244421-0.070984-1.920841c0.011826-0.67524,0.1707-1.418829,0.478287-2.228409
		c0.305908-0.808403,0.765594-1.239708,1.379089-1.291559c0.826447-0.06835,1.294601,0.447803,1.402756,1.550814
		C174.948685,22.553726,174.89798,23.776936,174.681656,25.036676z"/>
	<path fill="#7253ED" d="M85.00766,33.191742l-1.626007,0.218506l0.290207-4.791985
		c-1.522949,0.452148-4.760368,1.026545-8.036247,1.41717l0.124016,3.640562l2.799232-0.974445l-0.106323,0.992126
		l-0.690941,2.958698l-0.221046,6.797527l6.640625-0.791016l0.172852-5.707031
		c0.032715-0.833984,0.185036-1.355854,0.398926-1.618164c0.301956-0.370293,0.603645-0.606182,1.294075-0.68919
		c0.760742-0.089844,1.948822-0.141735,2.872429,0.138409l2.208229-5.370693
		C87.596191,26.825602,84.133644,27.73505,85.00766,33.191742z"/>
	<g>
		<polygon fill="#7253ED" points="131.210754,17.416252 124.926895,18.173355 124.785049,22.07757 131.068451,21.320467 		"/>
		<path fill="#7253ED" d="M130.821991,31.599676l0.292969-8.672852c-1.375366,0.408447-3.612129,0.808044-6.69294,1.198242
			l-0.097107,4.078125c-0.13916,3.987307-0.19043,6.250002-0.153809,6.786135c0.066895,0.985352,0.379395,1.692383,0.93457,2.124023
			c0.555664,0.429688,1.427246,0.574219,2.61377,0.432617c1.150398-0.136719,2.568459-0.643894,3.688972-1.090771l0.02121-3.710003
			C130.903458,32.741032,130.797775,32.572254,130.821991,31.599676z"/>
	</g>
	<path fill="#7253ED" d="M65.135567,20.515085c-0.160156-0.074219-0.262695-0.163086-0.307129-0.267578
		s-0.072754-0.237305-0.085449-0.400391c-0.011719-0.143555-0.068001-1.088444,0.07373-2.517578
		c0.15152-1.527879,0.323013-3.180157,0.283463-3.68504c-0.07959-1.009766-0.426163-1.654889-1.122944-2.2086
		c-0.696289-0.552734-1.323044-0.568159-2.456833-0.448042c-2.15918,0.229492-4.224529,1.581662-5.184002,3.684201
		l-0.980316,0.212598l0.432201-3.487619c-1.357788,0.383789-3.589432,0.767209-6.326267,1.088033l-0.909084,4.023603
		l1.505905-0.248032l-0.077534,9.805338l5.629185-0.59796l0.158997-6.579468c0.056641-1.823242,1.443787-2.804993,2.253357-2.890929
		c0.37793-0.040039,0.585938,0.182616,0.624023,0.669921c0.01709,0.216797,0.005859,1.109375-0.034668,2.677734
		c-0.039063,1.568359-0.038574,2.614258,0.002441,3.137695c0.078125,0.992188,0.401855,1.708008,0.972168,2.147461
		c0.569336,0.44043,1.457031,0.595703,2.662598,0.467773c1.169434-0.124023,2.522953-0.449219,4.060062-0.976563l0.080078-3.829102
		C66.101463,20.323793,65.295235,20.590281,65.135567,20.515085z"/>
	<path fill="#7253ED" d="M106.645454,14.435838l1.140678-14.366706c-2.022949,0.578125-4.169159,0.990169-7.371796,1.330013
		l-0.373207,3.921042l0.593605-0.046688l2.042221-0.569944l-0.960503,3.256601
		c-0.543304,6.377953-0.59243,9.095732-0.540367,9.758512c0.078125,0.992188,0.401855,1.708008,0.972168,2.147461
		c0.568848,0.44043,1.449753,0.578304,2.661751,0.606907c1.275589,0.030102,2.716537-0.095814,4.060905-1.115696l0.080078-3.433313
		C106.924629,16.341467,106.6138,15.708514,106.645454,14.435838z"/>
	<path fill="#7253ED" d="M32.389534,34.561848l-3.124329,0.784908c0.164907-2.199001-0.216925-5.294373-0.76148-6.406982
		c-1.202332-2.456665-2.899641-3.633642-5.781294-4.1005l0.001953-0.445313c3.559082-1.916016,5.202637-4.608398,4.929688-8.075195
		c-0.201172-2.557617-1.186035-4.305664-2.954102-5.246094c-1.768555-0.941406-4.504395-1.214844-8.208496-0.821289
		l-15.08496,1.602539l-0.152832,5.59668l1.47168-0.15625L2.340596,36.630524l-1.47168,0.157227l-0.153809,5.594727
		l13.245605-1.407227l0.153809-5.595703l-2.575684,0.274414l0.122559-8.522696l0.735352-0.078125
		c5.09912-0.61731,6.427489-0.083069,7.862853,3.138611c1.063049,2.385801,0.673256,6.531488,0.354359,10.216528l11.775574-1.169312
		V34.561848z M14.90739,22.098227L10.801417,22.5382l0.203664-7.328771l4.105972-0.439973
		c1.299633-0.138434,2.268229,0.009594,2.907148,0.445456c0.636875,0.437231,0.999928,1.207527,1.086433,2.310886
		C19.317835,20.251986,17.918072,21.777498,14.90739,22.098227z"/>
	<path fill="#7253ED" d="M76.491913,47.707493l-7.851341-21.766216l-13.927418,1.658739l-0.204102,5.525389l2.878418-0.342773
		L51.45845,50.11694l-2.657482,1.098427l0.018459,2.97213l11.739693-0.773613l0.062096-2.788208l-3.566082-1.138748
		l1.331882-4.915352c2.967712,0.260559,6.891907,0.021938,9.401947-0.748508l1.722633,4.486786l-4.48819,2.409451l0.119987,2.285233
		l14.841759-1.625008l0.487076-2.597233L76.491913,47.707493z M60.163681,40.304432l2.417576-7.905598l1.061741-0.155281
		l2.707932,7.466312L60.163681,40.304432z"/>
	<g>
		<polygon fill="#7253ED" points="209.830948,33.469078 209.816299,29.37533 203.071182,30.119471 203.086807,34.214195 		"/>
		<path fill="#7253ED" d="M210.905167,45.462929c-0.449219,0.049805-0.741211,0.004883-0.875-0.134766
			c-0.134766-0.139648-0.203125-0.473633-0.206055-1.001953l-0.05957-8.704102
			c-1.345093,0.387634-3.510132,0.760986-6.49353,1.120117c0,0-0.153931,10.400391-0.09436,10.94043
			c0.108398,0.989258,0.456055,1.701172,1.041016,2.137695c0.584961,0.435547,1.480469,0.586914,2.685547,0.453125
			c1.168945-0.128906,2.515625-0.458984,4.041016-0.991211L210.905167,45.462929z"/>
	</g>
</g>
</svg>
