<?xml version="1.0" encoding="utf-8"?>
<svg version="1.2" baseProfile="tiny" xmlns="http://www.w3.org/2000/svg" xmlns:xlink="http://www.w3.org/1999/xlink" x="0px"
	 y="0px" viewBox="0 0 264 60" xml:space="preserve">
<g id="AC_Logo">
	<linearGradient id="SVGID_1_" gradientUnits="userSpaceOnUse" x1="242.984863" y1="84.994423" x2="230.849396" y2="19.0693">
		<stop  offset="0" style="stop-color:#FFCF87"/>
		<stop  offset="0.028856" style="stop-color:#FACB8A"/>
		<stop  offset="0.496589" style="stop-color:#B18BBF"/>
		<stop  offset="0.831951" style="stop-color:#8462E0"/>
		<stop  offset="1" style="stop-color:#7253ED"/>
	</linearGradient>
	<path fill="url(#SVGID_1_)" d="M249.500809,3.09556h-33.409973c-5.620056,0-10.190002,4.580017-10.190002,10.200012v15.466736
		l1.282776-0.141541l1.105652-0.122009l0.003967,1.112366l0.014648,4.094236l0.003235,0.898926l-0.006531,0.000671
		l0.000366,0.053711l0.05957,8.705872c0.000305,0.053406,0.001343,0.101563,0.002991,0.144775l1.066711-0.118225l0.011292,1.105469
		l0.039063,3.819336l0.007385,0.717896l-0.677856,0.236511c-0.833191,0.29071-1.62085,0.521851-2.363037,0.698914
		c1.362305,4.022888,5.161743,6.93634,9.639771,6.93634h33.409973c5.619995,0,10.200027-4.579956,10.200027-10.199951V13.295572
		C259.700836,7.675577,255.120804,3.09556,249.500809,3.09556z"/>
	<linearGradient id="SVGID_2_" gradientUnits="userSpaceOnUse" x1="212.467056" y1="50.246994" x2="231.901276" y2="12.026385">
		<stop  offset="0" style="stop-color:#FFCF87"/>
		<stop  offset="0.612417" style="stop-color:#FFC164"/>
		<stop  offset="1" style="stop-color:#FFBA52"/>
	</linearGradient>
	<path fill="url(#SVGID_2_)" d="M232.560806,5.975564c-0.47998,0-0.97998,0.100037-1.51001,0.300049l-0.209961,0.079956
		c-7.630005,3.340027-15.170044,20.299988-16.690002,23.23999c-0.614136,1.196777-3.064575,7.003843-5.786804,13.698362
		l0.000488,0.070618c0.000305,0.053406,0.001343,0.101563,0.002991,0.144775l1.066711-0.118225l0.011292,1.105469l0.039063,3.819336
		l0.007385,0.717896l-0.677856,0.236511c-0.833191,0.29071-1.62085,0.521851-2.363037,0.698914
		c1.362305,4.022888,5.161743,6.93634,9.639771,6.93634h1.869995c0.109985-0.619995,0.219971-1.279968,0.349976-1.969971
		c1.030029-5.580017,2.409973-11.090027,4.140015-16.48999c1.399963-4.330017,2.73999-8.359983,5.339966-13.280027
		c2.170044-4.099976,3.820007-6.299988,6.380005-8.559998c1.540039-1.359985,3.73999-3.099976,4.950012-3.579956
		C238.270828,10.795572,236.030777,5.975564,232.560806,5.975564z"/>
	<path fill="#7253ED" d="M249.500809,1.905557h-33.409973c-6.280029,0-11.390015,5.110046-11.390015,11.390015v15.599121
		l1.200012-0.132385V13.295572c0-5.619996,4.569946-10.200012,10.190002-10.200012h33.409973
		c5.619995,0,10.200027,4.580017,10.200027,10.200012v33.410034c0,5.619995-4.580032,10.199951-10.200027,10.199951h-33.409973
		c-4.478027,0-8.277466-2.913452-9.639771-6.93634c-0.412903,0.098511-0.806824,0.174927-1.188782,0.237549
		c0.049683,0.152893,0.092529,0.309082,0.148499,0.458801c1.610046,4.340027,5.790039,7.429993,10.680054,7.429993h33.409973
		c6.289978,0,11.40004-5.109985,11.40004-11.389954V13.295572C260.900848,7.015604,255.790787,1.905557,249.500809,1.905557z"/>
	<linearGradient id="SVGID_3_" gradientUnits="userSpaceOnUse" x1="232.632492" y1="23.440832" x2="248.623474" y2="68.953651">
		<stop  offset="0" style="stop-color:#FFFFFF"/>
		<stop  offset="0.404551" style="stop-color:#F0F1F9"/>
		<stop  offset="1" style="stop-color:#DFE0F2"/>
	</linearGradient>
	<path fill="url(#SVGID_3_)" d="M249.500809,3.09556h-20.330017c-0.299988,0.350037-0.589966,0.700012-0.869995,1.059998
		l-0.039978,0.030029c-2.530029,3.190002-4.890015,6.52002-7.070007,9.969971c-0.5,0.780029-0.940002,1.480042-1.299988,2.080017
		c-1.580017,2.600037-3.090027,5.23999-4.530029,7.919983c-0.630005,1.170044-1.200012,2.25-1.580017,3.050049
		c-1.489563,2.964966-3.472595,7.117857-5.44928,11.329283l0.032532,4.759033
		c2.722229-6.694519,5.172668-12.501585,5.786804-13.698362c1.519958-2.940002,9.059998-19.899963,16.690002-23.23999
		l0.209961-0.079956c5.48999-2.120056,8.460022,7.869996,8.460022,7.869996s2.169983,5.070007,4.73999,16.759949
		c1.26001,5.72003,2.789978,12.499998,4.859985,25.999998h0.390015c5.619995,0,10.200027-4.579956,10.200027-10.199951V13.295572
		C259.700836,7.675577,255.120804,3.09556,249.500809,3.09556z"/>
</g>
<g id="Text">
	<g>
		<path fill="#7253ED" d="M162.096939,35.050209l8.946289-0.987305l0.018555,4.828125l-1.272461,0.140625l-4.884766,18.245117
			l-9.379883,1.035156l-2.433594-8.038086l-2.337891,8.564453l-9.224121,1.018555l-5.493164-17.099609l-1.271973,0.139648
			l-0.018066-4.827148l11.450684-1.263672l0.018555,4.827148l-1.59082,0.175781l2.707031,9.359375l0.158203-0.017578
			l2.541016-9.938477l-1.908203,0.210938l-0.017578-4.828125l12.085938-1.333984l0.018555,4.827148l-1.90918,0.210938
			l3.026367,9.324219l0.158203-0.016602l2.539063-9.939453l-1.908203,0.210938L162.096939,35.050209z"/>
		<path fill="#7253ED" d="M180.658463,47.573647l0.038086,3.819336c-1.524414,0.532227-2.871094,0.862305-4.041016,0.991211
			c-1.205078,0.132813-2.100586-0.017578-2.68457-0.454102c-0.585938-0.436523-0.932617-1.148438-1.041992-2.137695
			c-0.05957-0.540039-0.101563-2.810547-0.124023-6.8125l-1.079102,0.118164l-0.015625-4.09375
			c3.668945-0.405273,6.271484-0.829102,7.806641-1.272461l0.05957,8.705078c0.003906,0.52832,0.072266,0.861328,0.206055,1.001953
			C179.916275,47.578529,180.208267,47.623451,180.658463,47.573647z M172.77565,37.519936l-0.014648-4.09375l6.744141-0.745117
			l0.015625,4.094727L172.77565,37.519936z"/>
		<path fill="#7253ED" d="M190.887955,40.308998l-0.055664-2.977539c0.339844-0.219727,0.879883-0.444336,1.619141-0.670898
			c0.739258-0.228516,1.477539-0.381836,2.214844-0.462891c2.71582-0.299805,4.180664,0.511719,4.392578,2.436523
			c0.089844,0.80957-0.170898,1.542969-0.780273,2.202148c-0.610352,0.65918-1.546875,1.204102-2.80957,1.633789
			c1.197266,1.453125,1.982422,2.34082,2.355469,2.663086c0.37207,0.323242,0.855469,0.451172,1.449219,0.385742l0.039063,3.819336
			c-1.525391,0.53125-2.873047,0.862305-4.041016,0.991211c-1.205078,0.132813-2.201172-0.147461-2.988281-0.842773
			c-0.786133-0.695313-1.975586-2.319336-3.567383-4.870117l0.033203,6.160156l-6.727539,0.742188l-0.074219-15.007813
			l-1.079102,0.119141l-0.014648-4.09668c3.208984-0.354492,5.806641-0.82324,7.791992-1.407225l0.063477,12.078123
			c1.073242-0.299805,1.892578-0.600586,2.458008-0.901367c0.56543-0.298828,0.901367-0.541992,1.007813-0.726563
			c0.107422-0.185547,0.147461-0.394531,0.12207-0.628906c-0.024414-0.216797-0.162109-0.388672-0.412109-0.515625
			C191.634048,40.304115,191.302017,40.264076,190.887955,40.308998z"/>
		<path fill="#7253ED" d="M208.445572,44.506264l0.039063,3.819336c-1.525391,0.532227-2.87207,0.862305-4.041016,0.991211
			c-1.205078,0.133789-2.100586-0.017578-2.685547-0.453125c-0.584961-0.436523-0.932617-1.148438-1.041016-2.137695
			c-0.05957-0.540039-0.101563-2.810547-0.125-6.813477l-1.078125,0.119141l-0.015625-4.094727
			c3.668945-0.405273,6.271484-0.829102,7.806641-1.271484l0.05957,8.704102c0.00293,0.52832,0.071289,0.862305,0.206055,1.001953
			C207.704361,44.511147,207.996353,44.556068,208.445572,44.506264z M200.563736,34.453529l-0.015625-4.094725l6.745117-0.744141
			l0.014648,4.093748L200.563736,34.453529z"/>
	</g>
	<g>
		<path fill="#7253ED" d="M76.119408,45.224037l1.438965-0.170898l-0.203613,5.526367l-13.314453,1.585938l0.204102-5.526367
			l2.15918-0.257813l-0.483887-1.776367l-6.117191,0.728516l-0.595703,1.905273l2.15918-0.256836l-0.204102,5.526367
			l-10.79541,1.286133l0.20459-5.527344l1.438965-0.170898l5.377441-15.313477l-2.878418,0.342773l0.204102-5.525389
			l15.47266-1.842773L76.119408,45.224037z M61.38747,40.376381l3.238285-0.385742l-1.354496-4.973633l-0.180176,0.021484
			L61.38747,40.376381z"/>
		<path fill="#7253ED" d="M78.198997,34.026772l0.124023-4.07617c3.275879-0.390625,5.674805-0.811523,7.197754-1.263672
			l0.115723,4.453123l0.265625-0.03125c0.38916-2.933592,1.947266-4.563475,4.674316-4.88867l-0.251465,6.527342
			c-1.092773-0.048828-2.02002-0.029297-2.780762,0.060547c-0.69043,0.083008-1.152344,0.24707-1.385742,0.490234
			c-0.233398,0.245117-0.366211,0.78418-0.398926,1.618164l-0.172852,5.707031l-6.640625,0.791016l0.31543-9.514648
			L78.198997,34.026772z"/>
		<path fill="#7253ED" d="M103.54763,35.068764l-0.192871,4.625977c-1.54541,0.905273-3.30957,1.476563-5.292969,1.712891
			c-2.373047,0.283203-4.152832-0.037109-5.34082-0.960938c-1.187012-0.922852-1.843262-2.297852-1.967773-4.125
			c-0.047852-0.698242-0.032227-1.390625,0.046387-2.077148c0.077637-0.685547,0.277344-1.426758,0.598145-2.223633
			c0.319824-0.795897,0.758301-1.501951,1.314453-2.119139c0.555664-0.617188,1.334961-1.169922,2.337402-1.660156
			c1.001953-0.488281,2.16748-0.8125,3.495117-0.970703c2.001465-0.238281,3.743652-0.083984,5.226074,0.460938l-0.140137,4.619139
			c-0.895996-0.308594-1.610352-0.506834-2.142578-0.597654c-0.533691-0.088867-1.144531-0.09375-1.835449-0.011719
			c-0.637207,0.076172-1.139648,0.303709-1.506836,0.680662c-0.367188,0.378906-0.594727,0.765625-0.683594,1.164063
			c-0.088882,0.398438-0.117188,0.831055-0.085449,1.295898c0.090332,1.326172,0.798828,1.908203,2.126953,1.750977
			c0.690918-0.083008,1.305664-0.232422,1.84375-0.449219C101.886009,35.966225,102.619896,35.595131,103.54763,35.068764z"/>
		<path fill="#7253ED" d="M104.400658,25.489664l0.124023-4.075195c2.839844-0.338867,5.410645-0.825195,7.713867-1.460938
			l-0.100098,2.920898c-0.070801,1.845703-0.233398,3.78418-0.487305,5.813477l0.265625-0.03125
			c0.963379-2.100586,2.518555-3.27832,4.663086-3.533203c1.115723-0.132813,2.013672,0.071289,2.692871,0.612305
			c0.679688,0.541992,1.053223,1.314453,1.121582,2.317383c0.03418,0.500977,0.01416,1.514648-0.060547,3.039063
			c-0.074219,1.525389-0.106934,2.36035-0.097168,2.502928c0.010742,0.161133,0.037598,0.293945,0.080566,0.397461
			c0.042969,0.101563,0.143066,0.189453,0.298828,0.261719c0.156738,0.071289,0.376953,0.09082,0.660156,0.056641
			l-0.116211,3.804688c-1.515625,0.541992-2.849609,0.880859-4.000488,1.017578
			c-1.186523,0.141602-2.057617-0.00293-2.613281-0.432617c-0.556641-0.431641-0.867188-1.138672-0.93457-2.124023
			c-0.035156-0.517578-0.025879-1.556641,0.028809-3.116211c0.053711-1.558592,0.074219-2.446287,0.05957-2.660154
			c-0.033203-0.484375-0.234863-0.703125-0.605957-0.65918c-0.794922,0.094727-1.229004,1.052734-1.300781,2.871092
			l-0.22168,6.515625l-6.62207,0.789063l0.513672-14.949217L104.400658,25.489664z"/>
		<path fill="#7253ED" d="M130.041763,33.267006l-0.116211,3.804688c-1.516113,0.541992-2.85009,0.880859-4.000481,1.017578
			c-1.186523,0.141602-2.058105-0.00293-2.61377-0.432617c-0.555176-0.431641-0.867676-1.138672-0.93457-2.124023
			c-0.036621-0.536133,0.014648-2.798828,0.153809-6.786131l-1.0625,0.125977l0.150391-4.079102
			c3.612305-0.429688,6.179688-0.871094,7.702141-1.323242l-0.292969,8.67285
			c-0.017578,0.524414,0.036133,0.857422,0.161621,0.995117C129.314713,33.276772,129.598404,33.31974,130.041763,33.267006z
			 M122.722435,23.308023l0.149902-4.079102l6.640617-0.791016l-0.150391,4.079102L122.722435,23.308023z"/>
		<path fill="#7253ED" d="M143.496353,30.310953l-0.193359,4.625975c-1.54541,0.905273-3.30957,1.476563-5.29248,1.712891
			c-2.373535,0.282227-4.152832-0.037109-5.34082-0.961914c-1.187012-0.922852-1.843262-2.297852-1.967773-4.124998
			c-0.047852-0.698242-0.032227-1.389648,0.045898-2.076172c0.077637-0.685547,0.277832-1.427734,0.598145-2.223633
			s0.758789-1.501953,1.31543-2.120117c0.555176-0.616211,1.334473-1.169922,2.336426-1.65918
			c1.001953-0.488281,2.16748-0.8125,3.495605-0.970703c2.000977-0.238281,3.743164-0.083984,5.226563,0.460938l-0.140625,4.619141
			c-0.895508-0.30957-1.610352-0.507813-2.143066-0.597656c-0.533203-0.088867-1.144043-0.09375-1.834961-0.011719
			c-0.637207,0.076172-1.140137,0.302734-1.506836,0.680664c-0.367188,0.37793-0.595215,0.765625-0.683594,1.164063
			c-0.088867,0.398438-0.117676,0.831055-0.085938,1.295898c0.090332,1.326172,0.799316,1.908201,2.127441,1.75
			c0.690918-0.082031,1.305664-0.232422,1.84375-0.449219C141.83522,31.207438,142.568619,30.83732,143.496353,30.310953z"/>
		<path fill="#7253ED" d="M160.640884,29.622477l-0.115234,3.804686c-1.516602,0.541016-2.850586,0.880859-4.000977,1.017578
			c-1.292969,0.154297-2.158203,0.026367-2.59668-0.380859c-0.438477-0.408203-0.693359-1.140625-0.765625-2.19824
			l-0.265625,0.032227c-0.769531,2.078123-2.083008,3.226561-3.942383,3.44824
			c-1.133789,0.135742-2.123047-0.170898-2.967773-0.918945c-0.845703-0.748047-1.329102-2.006836-1.449219-3.780272
			c-0.045898-0.662109-0.042969-1.34375,0.007813-2.044922s0.188477-1.489258,0.414063-2.365234
			c0.226563-0.875,0.539063-1.65625,0.938477-2.344727c0.399414-0.6875,0.973633-1.293945,1.723633-1.816406
			s1.621094-0.842773,2.612305-0.960938c1.859375-0.22168,3.143555,0.292969,3.854492,1.544922l2.40625-2.019531l3.426758-0.408203
			l-0.293945,8.266602c-0.018555,0.524414,0.035156,0.857422,0.161133,0.995117
			C159.914322,29.632242,160.198502,29.675211,160.640884,29.622477z M152.251236,24.393961
			c-0.354492,0.041992-0.620117,0.399414-0.796875,1.069336c-0.177734,0.670898-0.269531,1.288086-0.276367,1.847656
			s0.007813,1.09082,0.041992,1.591797c0.070313,1.039063,0.344727,1.529297,0.823242,1.472656
			c0.495117-0.05957,0.805664-0.610352,0.931641-1.654297c0.125-1.042969,0.154297-2.056641,0.086914-3.041992
			C152.999283,24.765055,152.729752,24.33732,152.251236,24.393961z"/>
		<path fill="#7253ED" d="M177.454361,27.620523l-0.116211,3.803711c-1.515625,0.541992-2.849609,0.880857-4,1.017576
			c-1.292969,0.154297-2.158203,0.027344-2.597656-0.380859c-0.438477-0.408201-0.693359-1.139647-0.764648-2.197264
			l-0.265625,0.03125c-0.769531,2.078125-2.083008,3.227537-3.942383,3.449217
			c-1.133789,0.134766-2.123047-0.171875-2.967773-0.919922c-0.84668-0.748045-1.329102-2.006834-1.450195-3.780272
			c-0.044922-0.662109-0.041992-1.34375,0.008789-2.043945c0.049805-0.701172,0.188477-1.490234,0.414063-2.365234
			c0.226563-0.875977,0.539063-1.657227,0.938477-2.345703c0.398438-0.6875,0.973633-1.292969,1.723633-1.816406
			c0.75-0.522461,1.620117-0.842773,2.612305-0.960938c1.310547-0.155273,2.323242,0.040039,3.039063,0.585938l0.048828-2.037109
			l-1.0625,0.126953l0.150391-4.079102c3.168945-0.37793,5.742188-0.864258,7.719727-1.460938l-0.501953,14.248047
			c-0.018555,0.524414,0.035156,0.858398,0.161133,0.996094C176.727798,27.630289,177.011002,27.673258,177.454361,27.620523z
			 M169.064713,22.391031c-0.354492,0.042969-0.620117,0.400391-0.796875,1.070313
			c-0.177734,0.670898-0.269531,1.287109-0.276367,1.84668c-0.006836,0.560547,0.006836,1.09082,0.041016,1.591797
			c0.071289,1.039063,0.345703,1.529297,0.824219,1.472656c0.495117-0.058594,0.805664-0.610352,0.931641-1.65332
			c0.125-1.043945,0.154297-2.057617,0.086914-3.042969C169.812759,22.762125,169.542252,22.334391,169.064713,22.391031z"/>
	</g>
	<g>
		<g>
			<g>
				<path fill="#7253ED" d="M26.623798,29.633219l1.47168-0.157227l-0.15332,5.594725l-11.40625,1.211914
					c0.055176-3.080078,0.060059-4.902342,0.015137-5.468748c-0.127441-1.623047-0.478027-2.695313-1.050292-3.217773
					c-0.573242-0.520508-1.60791-0.702148-3.104004-0.542969l-0.735352,0.078125l-0.122559,4.104492l2.575684-0.274414
					l-0.153809,5.595701L0.715108,37.964272l0.153809-5.594727l1.47168-0.157227l0.384766-14.917967l-1.47168,0.15625
					l0.152832-5.59668l15.08496-1.602539c3.704102-0.393555,6.439941-0.120117,8.208496,0.821289
					c1.768066,0.94043,2.75293,2.688477,2.954102,5.246094c0.272949,3.466797-1.370605,6.15918-4.929688,8.075195
					l-0.001953,0.445313c1.179688,0.22168,2.102539,0.793945,2.768555,1.714844
					C26.157001,27.475992,26.534931,28.501383,26.623798,29.633219z M11.777608,21.539469l2.943359-0.313477
					c2.158202-0.228516,3.16162-1.31543,3.008788-3.257813c-0.062012-0.786133-0.322266-1.334961-0.778809-1.646484
					c-0.458008-0.310547-1.152343-0.416016-2.083983-0.317383l-2.943359,0.313477L11.777608,21.539469z"/>
				<path fill="#7253ED" d="M38.059834,17.923258l0.112793-4.104492c3.67041-0.389648,6.286621-0.804688,7.849121-1.243164
					c-0.001953,0.4375-0.030762,1.399414-0.085938,2.887695c-0.055664,1.488281-0.102051,2.857422-0.13916,4.107422
					c-0.038086,1.25-0.049805,1.96582-0.035645,2.145508c0.012695,0.163086,0.041504,0.295898,0.085449,0.400391
					c0.044922,0.104492,0.147461,0.193359,0.307129,0.267578s0.384277,0.095703,0.671875,0.06543l-0.07959,3.828125
					c-1.537109,0.527344-2.890625,0.852539-4.060547,0.976563c-1.1875,0.126953-2.039063-0.02832-2.553711-0.46582
					c-0.515625-0.435547-0.8125-1.158203-0.89209-2.168945l-0.27002,0.02832
					c-0.977051,2.105469-2.537109,3.271484-4.678223,3.499023c-1.07959,0.114258-1.980469-0.089844-2.70166-0.613281
					c-0.721191-0.524414-1.124023-1.318359-1.208008-2.381836c-0.02832-0.361328,0.01123-2.501953,0.120605-6.424805
					l-1.07959,0.114258l0.112305-4.104492c3.670898-0.389648,6.287598-0.804688,7.849609-1.243164
					c-0.039551,1.568359-0.086914,3.105469-0.140625,4.612305c-0.054199,1.506836-0.091309,2.538086-0.110352,3.094727
					c-0.019531,0.557617-0.021484,0.943359-0.004395,1.15918c0.043945,0.55957,0.26416,0.819336,0.659668,0.777344
					c0.810059-0.085938,1.242676-1.041992,1.298828-2.867188L39.139423,17.809L38.059834,17.923258z"/>
				<path fill="#7253ED" d="M66.123802,20.398844l-0.080078,3.829102c-1.537109,0.527344-2.890629,0.852539-4.060062,0.976563
					c-1.205566,0.12793-2.093262-0.027344-2.662598-0.467773c-0.570313-0.439453-0.894043-1.155273-0.972168-2.147461
					c-0.041016-0.523438-0.041504-1.569336-0.002441-3.137695c0.040527-1.568359,0.051758-2.460938,0.034668-2.677734
					c-0.038086-0.487305-0.246094-0.709961-0.624023-0.669922c-0.80957,0.085938-1.242676,1.041992-1.299316,2.865234
					l-0.13623,6.564453l-6.748047,0.716797l0.226563-9.574219l-1.079102,0.114258l0.085449-4.101563
					c3.328613-0.353516,5.765137-0.749023,7.30957-1.185547l0.190918,3.117188l0.269531-0.029297
					c0.959473-2.102539,2.519043-3.267578,4.678223-3.49707c1.133789-0.120117,2.049316,0.09668,2.745609,0.649414
					c0.696777,0.553711,1.084961,1.334961,1.164551,2.344727c0.039551,0.504883,0.028809,1.525391-0.031738,3.05957
					c-0.061035,1.53418-0.085449,2.374023-0.07373,2.517578c0.012695,0.163086,0.041016,0.295898,0.085449,0.400391
					s0.146973,0.193359,0.307129,0.267578C65.611595,20.408609,65.835716,20.430094,66.123802,20.398844z"/>
				<path fill="#7253ED" d="M77.628685,13.037516L77.666771,10.059c0.862305-0.564453,1.662598-0.885742,2.400391-0.963867
					c0.881836-0.09375,1.594727,0.089844,2.139648,0.549805c0.543945,0.459961,0.844238,1.052734,0.901367,1.773438
					c0.072266,0.919922-0.12207,1.795898-0.583008,2.626953c-0.460938,0.832031-1.400391,1.694336-2.817383,2.59082
					c1.272461,1.412109,2.412598,2.063477,3.419922,1.957031l-0.080078,3.828125
					c-0.690918,0.4375-1.549332,0.709961-2.575195,0.819336c-0.828125,0.087891-1.616211,0.03418-2.366699-0.15918
					c-0.75-0.192383-1.451172-0.513672-2.103516-0.962891c-0.651855-0.448242-1.213379-0.898438-1.68457-1.347656
					c-0.470703-0.451172-0.986816-1.010742-1.546875-1.678711c-0.388672,0.369141-0.572266,0.689453-0.550781,0.959961
					c0.020996,0.270508,0.220703,0.384766,0.598633,0.344727l-0.037598,2.977539
					c-0.863281,0.56543-1.663574,0.886719-2.400879,0.96582c-0.881851,0.09375-1.595215-0.089844-2.138672-0.550781
					c-0.544434-0.459961-0.845215-1.051758-0.901855-1.773438c-0.072266-0.919922,0.129883-1.800781,0.608398-2.643555
					c0.478516-0.841797,1.43457-1.710938,2.870605-2.609375c-1.272949-1.412109-2.412598-2.063477-3.42041-1.957031
					l0.080078-3.828125c0.691406-0.4375,1.550293-0.709961,2.575684-0.818359
					c0.827148-0.087891,1.616211-0.040039,2.365723,0.143555s1.450195,0.5,2.102051,0.950195
					c0.651855,0.448242,1.214355,0.897461,1.685059,1.348633c0.470215,0.450195,0.986328,1.009766,1.547363,1.677734
					c0.334961-0.344727,0.492676-0.643555,0.473145-0.896484C78.205833,13.112711,78.006615,12.997477,77.628685,13.037516z"/>
				<path fill="#7253ED" d="M97.692162,16.225992l-0.112793,4.104492c-1.88623,0.928711-3.855469,1.501953-5.906738,1.719727
					c-2.411621,0.255859-4.225098-0.086914-5.442383-1.032227c-1.217285-0.943359-1.898438-2.335938-2.043457-4.175781
					c-0.055176-0.703125-0.046387-1.399414,0.026367-2.089844c0.072754-0.689453,0.268066-1.432617,0.585938-2.231445
					c0.318359-0.796875,0.757324-1.50293,1.316895-2.118164c0.560059-0.614258,1.34668-1.160156,2.361328-1.641602
					c1.01416-0.481445,2.196777-0.792969,3.546387-0.936524c1.871094-0.198242,3.37793,0.045898,4.521484,0.734375
					c1.14209,0.6875,1.766113,1.699219,1.871094,3.03418c0.068359,0.866211-0.084473,1.578125-0.45752,2.135742
					c-0.374023,0.557617-1.134277,1.042969-2.280762,1.457031c-1.147461,0.412109-2.746094,0.727539-4.797852,0.945313
					c0.04248,0.541016,0.227539,0.931641,0.555176,1.168945c0.32666,0.238281,0.958496,0.307617,1.894043,0.208984
					C94.750755,17.357828,96.204857,16.93107,97.692162,16.225992z M93.04763,12.545328
					c-0.015625-0.198242-0.096191-0.362305-0.242188-0.493164c-0.146484-0.129883-0.345703-0.180664-0.597656-0.154297
					c-0.755859,0.080078-1.175781,0.625-1.259766,1.634766c0.827637-0.087891,1.390625-0.198242,1.688477-0.330078
					C92.934837,13.071695,93.072044,12.851969,93.04763,12.545328z"/>
				<path fill="#7253ED" d="M108.093529,15.939859l-0.080078,3.829102c-1.537109,0.527344-2.890625,0.852539-4.060059,0.976563
					c-1.205566,0.12793-2.09375-0.027344-2.662598-0.467773c-0.570313-0.439453-0.894043-1.155273-0.972168-2.147461
					c-0.056641-0.720703,0.010742-4.820313,0.202637-12.299805l-1.07959,0.114258l0.112305-4.104492
					c3.202637-0.339844,5.815918-0.799805,7.838867-1.37793l-0.342285,14.333008
					c-0.012207,0.529297,0.044922,0.864258,0.174805,1.004883C107.354271,15.940836,107.643333,15.987711,108.093529,15.939859z"/>
				<path fill="#7253ED" d="M109.563255,19.057047l0.097168-4.648438c1.92041,0.888672,3.888184,1.224609,5.903809,1.010742
					c0.899414-0.095703,1.337891-0.296875,1.313477-0.604492c-0.012695-0.161133-0.13916-0.261719-0.377441-0.300781
					c-0.23877-0.037109-0.739746-0.060547-1.502441-0.071289c-3.686035-0.027344-5.623535-1.249023-5.813477-3.666016
					c-0.109375-1.389648,0.484863-2.597656,1.783203-3.62793c1.297852-1.029297,3.17041-1.672852,5.618164-1.933594
					c2.536621-0.269531,4.760254-0.142578,6.67041,0.382813l-0.097168,4.649415
					c-1.92041-0.888672-3.888672-1.224609-5.90332-1.010742c-0.900391,0.095703-1.337891,0.296875-1.313477,0.603516
					c0.012695,0.162109,0.138184,0.261719,0.376953,0.300781c0.23877,0.038086,0.740234,0.063477,1.50293,0.071289
					c3.685059,0.02832,5.624023,1.258789,5.81543,3.694336c0.10791,1.371094-0.487793,2.571289-1.785645,3.599609
					c-1.297852,1.029297-3.170898,1.674805-5.617676,1.93457C113.697044,19.710367,111.473412,19.582438,109.563255,19.057047z"/>
			</g>
		</g>
		<g>
			<path fill="#7253ED" d="M26.623798,29.633219l1.47168-0.157227l-0.15332,5.594725l-11.40625,1.211914
				c0.055176-3.080078,0.060059-4.902342,0.015137-5.468748c-0.127441-1.623047-0.478027-2.695313-1.050292-3.217773
				c-0.573242-0.520508-1.60791-0.702148-3.104004-0.542969l-0.735352,0.078125l-0.122559,4.104492l2.575684-0.274414
				l-0.153809,5.595701L0.715108,37.964272l0.153809-5.594727l1.47168-0.157227l0.384766-14.917967l-1.47168,0.15625
				l0.152832-5.59668l15.08496-1.602539c3.704102-0.393555,6.439941-0.120117,8.208496,0.821289
				c1.768066,0.94043,2.75293,2.688477,2.954102,5.246094c0.272949,3.466797-1.370605,6.15918-4.929688,8.075195l-0.001953,0.445313
				c1.179688,0.22168,2.102539,0.793945,2.768555,1.714844C26.157001,27.475992,26.534931,28.501383,26.623798,29.633219z
				 M11.777608,21.539469l2.943359-0.313477c2.158202-0.228516,3.16162-1.31543,3.008788-3.257813
				c-0.062012-0.786133-0.322266-1.334961-0.778809-1.646484c-0.458008-0.310547-1.152343-0.416016-2.083983-0.317383
				l-2.943359,0.313477L11.777608,21.539469z"/>
			<path fill="#7253ED" d="M38.059834,17.923258l0.112793-4.104492c3.67041-0.389648,6.286621-0.804688,7.849121-1.243164
				c-0.001953,0.4375-0.030762,1.399414-0.085938,2.887695c-0.055664,1.488281-0.102051,2.857422-0.13916,4.107422
				c-0.038086,1.25-0.049805,1.96582-0.035645,2.145508c0.012695,0.163086,0.041504,0.295898,0.085449,0.400391
				c0.044922,0.104492,0.147461,0.193359,0.307129,0.267578s0.384277,0.095703,0.671875,0.06543l-0.07959,3.828125
				c-1.537109,0.527344-2.890625,0.852539-4.060547,0.976563c-1.1875,0.126953-2.039063-0.02832-2.553711-0.46582
				c-0.515625-0.435547-0.8125-1.158203-0.89209-2.168945l-0.27002,0.02832c-0.977051,2.105469-2.537109,3.271484-4.678223,3.499023
				c-1.07959,0.114258-1.980469-0.089844-2.70166-0.613281c-0.721191-0.524414-1.124023-1.318359-1.208008-2.381836
				c-0.02832-0.361328,0.01123-2.501953,0.120605-6.424805l-1.07959,0.114258l0.112305-4.104492
				c3.670898-0.389648,6.287598-0.804688,7.849609-1.243164c-0.039551,1.568359-0.086914,3.105469-0.140625,4.612305
				c-0.054199,1.506836-0.091309,2.538086-0.110352,3.094727c-0.019531,0.557617-0.021484,0.943359-0.004395,1.15918
				c0.043945,0.55957,0.26416,0.819336,0.659668,0.777344c0.810059-0.085938,1.242676-1.041992,1.298828-2.867188L39.139423,17.809
				L38.059834,17.923258z"/>
			<path fill="#7253ED" d="M66.123802,20.398844l-0.080078,3.829102c-1.537109,0.527344-2.890629,0.852539-4.060062,0.976563
				c-1.205566,0.12793-2.093262-0.027344-2.662598-0.467773c-0.570313-0.439453-0.894043-1.155273-0.972168-2.147461
				c-0.041016-0.523438-0.041504-1.569336-0.002441-3.137695c0.040527-1.568359,0.051758-2.460938,0.034668-2.677734
				c-0.038086-0.487305-0.246094-0.709961-0.624023-0.669922c-0.80957,0.085938-1.242676,1.041992-1.299316,2.865234
				l-0.13623,6.564453l-6.748047,0.716797l0.226563-9.574219l-1.079102,0.114258l0.085449-4.101563
				c3.328613-0.353516,5.765137-0.749023,7.30957-1.185547l0.190918,3.117188l0.269531-0.029297
				c0.959473-2.102539,2.519043-3.267578,4.678223-3.49707c1.133789-0.120117,2.049316,0.09668,2.745609,0.649414
				c0.696777,0.553711,1.084961,1.334961,1.164551,2.344727c0.039551,0.504883,0.028809,1.525391-0.031738,3.05957
				c-0.061035,1.53418-0.085449,2.374023-0.07373,2.517578c0.012695,0.163086,0.041016,0.295898,0.085449,0.400391
				s0.146973,0.193359,0.307129,0.267578C65.611595,20.408609,65.835716,20.430094,66.123802,20.398844z"/>
			<path fill="#7253ED" d="M77.628685,13.037516L77.666771,10.059c0.862305-0.564453,1.662598-0.885742,2.400391-0.963867
				c0.881836-0.09375,1.594727,0.089844,2.139648,0.549805c0.543945,0.459961,0.844238,1.052734,0.901367,1.773438
				c0.072266,0.919922-0.12207,1.795898-0.583008,2.626953c-0.460938,0.832031-1.400391,1.694336-2.817383,2.59082
				c1.272461,1.412109,2.412598,2.063477,3.419922,1.957031l-0.080078,3.828125
				c-0.690918,0.4375-1.549332,0.709961-2.575195,0.819336c-0.828125,0.087891-1.616211,0.03418-2.366699-0.15918
				c-0.75-0.192383-1.451172-0.513672-2.103516-0.962891c-0.651855-0.448242-1.213379-0.898438-1.68457-1.347656
				c-0.470703-0.451172-0.986816-1.010742-1.546875-1.678711c-0.388672,0.369141-0.572266,0.689453-0.550781,0.959961
				c0.020996,0.270508,0.220703,0.384766,0.598633,0.344727l-0.037598,2.977539
				c-0.863281,0.56543-1.663574,0.886719-2.400879,0.96582c-0.881851,0.09375-1.595215-0.089844-2.138672-0.550781
				c-0.544434-0.459961-0.845215-1.051758-0.901855-1.773438c-0.072266-0.919922,0.129883-1.800781,0.608398-2.643555
				c0.478516-0.841797,1.43457-1.710938,2.870605-2.609375c-1.272949-1.412109-2.412598-2.063477-3.42041-1.957031
				l0.080078-3.828125c0.691406-0.4375,1.550293-0.709961,2.575684-0.818359c0.827148-0.087891,1.616211-0.040039,2.365723,0.143555
				s1.450195,0.5,2.102051,0.950195c0.651855,0.448242,1.214355,0.897461,1.685059,1.348633
				c0.470215,0.450195,0.986328,1.009766,1.547363,1.677734c0.334961-0.344727,0.492676-0.643555,0.473145-0.896484
				C78.205833,13.112711,78.006615,12.997477,77.628685,13.037516z"/>
			<path fill="#7253ED" d="M97.692162,16.225992l-0.112793,4.104492c-1.88623,0.928711-3.855469,1.501953-5.906738,1.719727
				c-2.411621,0.255859-4.225098-0.086914-5.442383-1.032227c-1.217285-0.943359-1.898438-2.335938-2.043457-4.175781
				c-0.055176-0.703125-0.046387-1.399414,0.026367-2.089844c0.072754-0.689453,0.268066-1.432617,0.585938-2.231445
				c0.318359-0.796875,0.757324-1.50293,1.316895-2.118164c0.560059-0.614258,1.34668-1.160156,2.361328-1.641602
				c1.01416-0.481445,2.196777-0.792969,3.546387-0.936524c1.871094-0.198242,3.37793,0.045898,4.521484,0.734375
				c1.14209,0.6875,1.766113,1.699219,1.871094,3.03418c0.068359,0.866211-0.084473,1.578125-0.45752,2.135742
				c-0.374023,0.557617-1.134277,1.042969-2.280762,1.457031c-1.147461,0.412109-2.746094,0.727539-4.797852,0.945313
				c0.04248,0.541016,0.227539,0.931641,0.555176,1.168945c0.32666,0.238281,0.958496,0.307617,1.894043,0.208984
				C94.750755,17.357828,96.204857,16.93107,97.692162,16.225992z M93.04763,12.545328
				c-0.015625-0.198242-0.096191-0.362305-0.242188-0.493164c-0.146484-0.129883-0.345703-0.180664-0.597656-0.154297
				c-0.755859,0.080078-1.175781,0.625-1.259766,1.634766c0.827637-0.087891,1.390625-0.198242,1.688477-0.330078
				C92.934837,13.071695,93.072044,12.851969,93.04763,12.545328z"/>
			<path fill="#7253ED" d="M108.093529,15.939859l-0.080078,3.829102c-1.537109,0.527344-2.890625,0.852539-4.060059,0.976563
				c-1.205566,0.12793-2.09375-0.027344-2.662598-0.467773c-0.570313-0.439453-0.894043-1.155273-0.972168-2.147461
				c-0.056641-0.720703,0.010742-4.820313,0.202637-12.299805l-1.07959,0.114258l0.112305-4.104492
				c3.202637-0.339844,5.815918-0.799805,7.838867-1.37793l-0.342285,14.333008
				c-0.012207,0.529297,0.044922,0.864258,0.174805,1.004883C107.354271,15.940836,107.643333,15.987711,108.093529,15.939859z"/>
			<path fill="#7253ED" d="M109.563255,19.057047l0.097168-4.648438c1.92041,0.888672,3.888184,1.224609,5.903809,1.010742
				c0.899414-0.095703,1.337891-0.296875,1.313477-0.604492c-0.012695-0.161133-0.13916-0.261719-0.377441-0.300781
				c-0.23877-0.037109-0.739746-0.060547-1.502441-0.071289c-3.686035-0.027344-5.623535-1.249023-5.813477-3.666016
				c-0.109375-1.389648,0.484863-2.597656,1.783203-3.62793c1.297852-1.029297,3.17041-1.672852,5.618164-1.933594
				c2.536621-0.269531,4.760254-0.142578,6.67041,0.382813l-0.097168,4.649415
				c-1.92041-0.888672-3.888672-1.224609-5.90332-1.010742c-0.900391,0.095703-1.337891,0.296875-1.313477,0.603516
				c0.012695,0.162109,0.138184,0.261719,0.376953,0.300781c0.23877,0.038086,0.740234,0.063477,1.50293,0.071289
				c3.685059,0.02832,5.624023,1.258789,5.81543,3.694336c0.10791,1.371094-0.487793,2.571289-1.785645,3.599609
				c-1.297852,1.029297-3.170898,1.674805-5.617676,1.93457C113.697044,19.710367,111.473412,19.582438,109.563255,19.057047z"/>
		</g>
	</g>
</g>
</svg>
